{"asset":{"version":"2.0","generator":"THREE.GLTFExporter"},"scenes":[{"name":"AuxScene","nodes":[0]}],"scene":0,"nodes":[{"mesh":0}],"bufferViews":[{"buffer":0,"byteOffset":0,"byteLength":21276,"target":34962,"byteStride":12},{"buffer":0,"byteOffset":21276,"byteLength":21276,"target":34962,"byteStride":12}],"buffers":[{"byteLength":42552,"uri":"data:application/octet-stream;base64,"}],"accessors":[{"bufferView":0,"componentType":5126,"count":1773,"max":[100.61190795898438,31.595970153808594,100.61190795898438],"min":[-100.68809509277344,0.19596900045871735,-100.68809509277344],"type":"VEC3"},{"bufferView":1,"componentType":5126,"count":1773,"max":[0.9740867018699646,1,0.9436976313591003],"min":[-0.970145046710968,0.05772627145051956,-0.8497366905212402],"type":"VEC3"}],"materials":[{"pbrMetallicRoughness":{"baseColorFactor":[0.5019607843137255,0.5019607843137255,0.5019607843137255,1],"metallicFactor":0,"roughnessFactor":1}}],"meshes":[{"primitives":[{"mode":4,"attributes":{"POSITION":0,"NORMAL":1},"material":0}]}]}